<svg xmlns="http://www.w3.org/2000/svg" viewBox="0 0 512 512" width="100%" height="100%">
  <defs>
    <radialGradient id="bg_luso" cx="50%" cy="50%" r="65%">
      <stop offset="0%" stop-color="#064E3B" />
      <stop offset="60%" stop-color="#022C22" />
      <stop offset="100%" stop-color="#01140F" />
    </radialGradient>
    <linearGradient id="luso_grad" x1="0%" y1="0%" x2="100%" y2="100%">
      <stop offset="0%" stop-color="#6EE7B7" />
      <stop offset="50%" stop-color="#10B981" />
      <stop offset="100%" stop-color="#047857" />
    </linearGradient>
  </defs>
  <rect width="512" height="512" fill="url(#bg_luso)" />
  <circle cx="256" cy="256" r="230" fill="none" stroke="url(#luso_grad)" stroke-width="4" stroke-dasharray="10,6" opacity="0.8" />

  <!-- Lusitanian Laurel Wreath Glow -->
  <g fill="none" stroke="#FDE047" stroke-width="3" opacity="0.6">
    <ellipse cx="256" cy="220" rx="140" ry="120" />
  </g>

  <!-- Noble Tunic -->
  <path d="M130 512 C130 380, 190 350, 256 350 C322 350, 382 380, 382 512 Z" fill="#047857" stroke="#6EE7B7" stroke-width="5" />
  <polygon points="256,360 276,430 256,480 236,430" fill="#DC2626" stroke="#FEF08A" stroke-width="2" />

  <!-- Lusitano Hero Face -->
  <circle cx="256" cy="245" r="75" fill="#FED7AA" />
  <path d="M185 240 C185 160, 327 160, 327 240 C310 200, 202 200, 185 240 Z" fill="#78350F" />

  <!-- Radiant Golden Laurel Wreath On Head -->
  <g fill="#FBBF24" stroke="#78350F" stroke-width="1.5">
    <ellipse cx="195" cy="190" rx="12" ry="6" transform="rotate(-30 195 190)" />
    <ellipse cx="215" cy="170" rx="12" ry="6" transform="rotate(-15 215 170)" />
    <ellipse cx="240" cy="160" rx="12" ry="6" />
    <ellipse cx="272" cy="160" rx="12" ry="6" />
    <ellipse cx="297" cy="170" rx="12" ry="6" transform="rotate(15 297 170)" />
    <ellipse cx="317" cy="190" rx="12" ry="6" transform="rotate(30 317 190)" />
  </g>

  <!-- Proud Eyes -->
  <ellipse cx="235" cy="235" rx="8" ry="5" fill="#1F2937" />
  <ellipse cx="277" cy="235" rx="8" ry="5" fill="#1F2937" />
  <circle cx="236" cy="233" r="2.5" fill="#10B981" />
  <circle cx="278" cy="233" r="2.5" fill="#10B981" />

  <!-- Banner Badge -->
  <rect x="146" y="460" width="220" height="36" rx="18" fill="#064E3B" stroke="url(#luso_grad)" stroke-width="3" />
  <text x="256" y="484" text-anchor="middle" fill="#6EE7B7" font-family="sans-serif" font-weight="900" font-size="14" letter-spacing="2">ESPÍRITO LUSITANO</text>
</svg>